<svg xmlns="http://www.w3.org/2000/svg" xmlns:xlink="http://www.w3.org/1999/xlink" viewBox="0 0 175.77 46.08"><defs><style>.cls-1{fill:#0072bc;}.cls-2{fill:url(#Nueva_muestra_de_degradado_3);}</style><linearGradient id="Nueva_muestra_de_degradado_3" y1="23.04" x2="46.08" y2="23.04" gradientUnits="userSpaceOnUse"><stop offset="0" stop-color="#0072bc"/><stop offset="1" stop-color="#00a0d8"/></linearGradient></defs><g id="_4_ingles" data-name="4 ingles"><path class="cls-1" d="M61.29,8.5v1.63a6.8,6.8,0,0,1,2.18-1.51A6.18,6.18,0,0,1,66,8.11a6.43,6.43,0,0,1,4.93,2.2,7.91,7.91,0,0,1,2,5.62,7.79,7.79,0,0,1-2.09,5.54,6.6,6.6,0,0,1-5,2.23,6,6,0,0,1-2.38-.46,7,7,0,0,1-2.19-1.49v7h-3.7V8.5Zm3.91,3.05a3.88,3.88,0,0,0-2.92,1.2,4.31,4.31,0,0,0-1.16,3.13,4.44,4.44,0,0,0,1.16,3.19,3.82,3.82,0,0,0,2.92,1.22,3.75,3.75,0,0,0,2.86-1.24,4.41,4.41,0,0,0,1.17-3.16,4.34,4.34,0,0,0-1.15-3.12A3.75,3.75,0,0,0,65.2,11.55Z"/><path class="cls-1" d="M90.44,11.49l-3.1,1.7a5.23,5.23,0,0,0-1.73-1.26,5.05,5.05,0,0,0-2-.36,4.65,4.65,0,0,0-3.38,1.25A4.23,4.23,0,0,0,79,16a4.14,4.14,0,0,0,1.24,3.09,4.54,4.54,0,0,0,3.26,1.19,4.75,4.75,0,0,0,3.89-1.7l2.93,2a8,8,0,0,1-6.73,3.1,8,8,0,0,1-6.12-2.32A7.8,7.8,0,0,1,76.28,12a7.59,7.59,0,0,1,3-2.85,9,9,0,0,1,4.31-1,8.8,8.8,0,0,1,4,.88A7.63,7.63,0,0,1,90.44,11.49Z"/><path class="cls-1" d="M91.61,14.18h6.46v3.46H91.61Z"/><path class="cls-1" d="M100.52,8.5h3.72v1.7a6.53,6.53,0,0,1,2.12-1.57,6.32,6.32,0,0,1,2.55-.52,4.74,4.74,0,0,1,2.5.68,4.91,4.91,0,0,1,1.8,2,6.08,6.08,0,0,1,2.18-2,6,6,0,0,1,2.81-.68,5.2,5.2,0,0,1,2.78.74,4.26,4.26,0,0,1,1.73,1.92,10.31,10.31,0,0,1,.52,3.86v8.69h-3.74V15.8a6.45,6.45,0,0,0-.63-3.42,2.15,2.15,0,0,0-1.88-.89,2.8,2.8,0,0,0-1.71.55,3.18,3.18,0,0,0-1.12,1.5,9.23,9.23,0,0,0-.37,3.09v6.69H110V16.14a9.93,9.93,0,0,0-.29-2.88,2.62,2.62,0,0,0-.88-1.33,2.33,2.33,0,0,0-1.42-.44,2.87,2.87,0,0,0-1.69.55,3.36,3.36,0,0,0-1.13,1.55,9.53,9.53,0,0,0-.38,3.13v6.6h-3.72Z"/><path class="cls-1" d="M137.3,8.5H141V23.32H137.3V21.75a7.13,7.13,0,0,1-2.18,1.49,6,6,0,0,1-2.37.46,6.58,6.58,0,0,1-5-2.23,7.75,7.75,0,0,1-2.1-5.54,8,8,0,0,1,2-5.62,6.45,6.45,0,0,1,4.93-2.2,6.18,6.18,0,0,1,2.5.51,6.72,6.72,0,0,1,2.16,1.51Zm-3.9,3.05a3.74,3.74,0,0,0-2.87,1.22,4.38,4.38,0,0,0-1.14,3.12,4.45,4.45,0,0,0,1.16,3.16,3.75,3.75,0,0,0,2.86,1.24,3.79,3.79,0,0,0,2.9-1.22,4.44,4.44,0,0,0,1.16-3.19,4.31,4.31,0,0,0-1.16-3.13A3.87,3.87,0,0,0,133.4,11.55Z"/><path class="cls-1" d="M158.69,11.49l-3.1,1.7a5.3,5.3,0,0,0-1.72-1.26,5.14,5.14,0,0,0-2-.36,4.67,4.67,0,0,0-3.38,1.25A4.23,4.23,0,0,0,147.2,16a4.14,4.14,0,0,0,1.24,3.09,4.54,4.54,0,0,0,3.26,1.19,4.75,4.75,0,0,0,3.89-1.7l2.93,2a9,9,0,0,1-12.85.78A7.57,7.57,0,0,1,143.46,16a7.66,7.66,0,0,1,1.07-4,7.59,7.59,0,0,1,3-2.85,9,9,0,0,1,4.31-1,8.8,8.8,0,0,1,4,.88A7.63,7.63,0,0,1,158.69,11.49Z"/><path class="cls-1" d="M174,23.09q-.22-.27-.48-.54a7.53,7.53,0,0,0-4-2.11c-1.41-.25-2.92-.28-4-1.34a4,4,0,0,1-1.22-2.59c0-.08,0-.17,0-.26s0-.16,0-.24a4.23,4.23,0,0,1,1.29-3.19A4.65,4.65,0,0,1,169,11.57a5.1,5.1,0,0,1,2,.36,5.33,5.33,0,0,1,1.73,1.26l3.09-1.7A7.53,7.53,0,0,0,172.9,9a8.81,8.81,0,0,0-4-.88,9,9,0,0,0-4.31,1A7.66,7.66,0,0,0,160.54,16c0,.06,0,.11,0,.17s0,.22,0,.33,0,.21,0,.31a7.65,7.65,0,0,0,2.18,4.65,7.46,7.46,0,0,0,4,2.1c1.36.29,2.84.27,3.93,1.27a4.47,4.47,0,0,1,1.28,4,4.21,4.21,0,0,1-1.22,2.37,4.41,4.41,0,0,1-2,1,15.77,15.77,0,0,1-2.83.23h-76a3.79,3.79,0,0,0-3.4-2.11H78.68a.42.42,0,0,0-.42.42v.9h-5.5a.46.46,0,0,0-.46.45v4.15a.46.46,0,0,0,.46.45h5.5v.91a.41.41,0,0,0,.42.41h7.83a3.79,3.79,0,0,0,3.4-2.11H167a10.24,10.24,0,0,0,4.73-1,7.63,7.63,0,0,0,3-2.84,8,8,0,0,0,1.07-4.14c0-.2,0-.41,0-.61A7.71,7.71,0,0,0,174,23.09ZM78.26,35.63h-4.2a.5.5,0,0,1-.5-.5.5.5,0,0,1,.5-.51h4.2Zm0-2h-4.2a.5.5,0,0,1-.5-.51.5.5,0,0,1,.5-.5h4.2Z"/><path class="cls-2" d="M10.48,17.15a3.61,3.61,0,0,1-.94-2.58A3.51,3.51,0,0,1,10.48,12a3.16,3.16,0,0,1,2.37-1,3.07,3.07,0,0,1,2.34,1,3.6,3.6,0,0,1,.92,2.54,3.6,3.6,0,0,1-.94,2.56,3.05,3.05,0,0,1-2.32,1A3.14,3.14,0,0,1,10.48,17.15ZM7.82,37a.41.41,0,0,0,.41.41h3.41v-.82H8.23A.42.42,0,0,0,7.82,37Zm0-1.64a.41.41,0,0,0,.41.41h3.41v-.82H8.23A.42.42,0,0,0,7.82,35.32ZM46.08,3.16V42.91a3.17,3.17,0,0,1-3.17,3.17H3.16A3.17,3.17,0,0,1,0,42.91V3.16A3.17,3.17,0,0,1,3.16,0H42.91A3.17,3.17,0,0,1,46.08,3.16ZM6.69,25.06h3V19.32a5.83,5.83,0,0,0,1.77,1.21,5,5,0,0,0,1.94.37,5.38,5.38,0,0,0,4-1.8,6.32,6.32,0,0,0,1.7-4.49,6.45,6.45,0,0,0-1.65-4.56,5.27,5.27,0,0,0-4-1.78,5.16,5.16,0,0,0-2,.41A5.52,5.52,0,0,0,9.68,9.91V8.58h-3ZM39.46,13.55A8.15,8.15,0,0,0,39,10.43a3.48,3.48,0,0,0-1.39-1.56,4.22,4.22,0,0,0-2.26-.6,4.78,4.78,0,0,0-4,2.17,3.89,3.89,0,0,0-1.46-1.61,3.8,3.8,0,0,0-2-.56,5,5,0,0,0-2.06.42A5.29,5.29,0,0,0,24.07,10V8.58h-3v12h3V15.25a7.85,7.85,0,0,1,.3-2.54,2.7,2.7,0,0,1,.92-1.25A2.27,2.27,0,0,1,26.66,11a1.91,1.91,0,0,1,1.15.35,2.08,2.08,0,0,1,.71,1.08,8.13,8.13,0,0,1,.24,2.34v5.81h3V15.17a7.53,7.53,0,0,1,.3-2.5A2.56,2.56,0,0,1,33,11.45,2.34,2.34,0,0,1,34.39,11a1.75,1.75,0,0,1,1.53.72,5.36,5.36,0,0,1,.5,2.77V33.42a1,1,0,0,1-.93,1H20.91A3.07,3.07,0,0,0,18.32,33H12a.34.34,0,0,0-.33.34v.73H7.18a.37.37,0,0,0-.37.37v3.36a.36.36,0,0,0,.37.37h4.46v.73a.34.34,0,0,0,.33.34h6.35a3.09,3.09,0,0,0,2.78-1.77H36.42a3,3,0,0,0,3-3Z"/></g></svg>